# xmcd CD database file
# Copyright (C) 1996 Ti Kan
#
# Track frame offsets:
#  205
#  10685
#  21732
#  33450
#  45795
#  57842
#  68560
#  82137
#  93410
#  105102
#  115387
#  127445
#  137860
#  147940
#
# Disc length: 2114 seconds
#
# Revision: 1
# Processed by: cddbd v1.4b41PL1 Copyright (c) Steve Scherf et al.
# Submitted via: CDWizzard Release:4.12
#
DISCID=c008400e
DTITLE=Lightnin' Hopkins - The Herald Recordings (Vol. 2)
DYEAR=1900
DGENRE=
TTITLE0=Let's Move
TTITLE1=Blues Is A Mighty Bad Feeling
TTITLE2=Boogie Woogie Dance
TTITLE3=Please Don't Go Baby
TTITLE4=Remember Me
TTITLE5=Finally Met My Baby
TTITLE6=That's Alright Baby
TTITLE7=I Love You Baby
TTITLE8=Grandma's Boogie
TTITLE9=Had A Gal Called Sal
TTITLE10=Shine On Moon
TTITLE11=Don't Need No Job
TTITLE12=Early Mornin' Boogie
TTITLE13=Lightnin's Special
EXTD=
EXTT0=
EXTT1=
EXTT2=
EXTT3=
EXTT4=
EXTT5=
EXTT6=
EXTT7=
EXTT8=
EXTT9=
EXTT10=
EXTT11=
EXTT12=
EXTT13=
PLAYORDER=
